<mxfile host="app.diagrams.net" modified="2023-11-15T04:08:52.915Z" agent="Mozilla/5.0 (Windows NT 10.0; Win64; x64) AppleWebKit/537.36 (KHTML, like Gecko) Chrome/119.0.0.0 Safari/537.36 Edg/119.0.0.0" etag="zdyJH5NluBWXntVO51lI" version="22.1.1" type="device">
  <diagram name="Page-1" id="PTX1TL9EGSiakLMb6XGC">
    <mxGraphModel dx="513" dy="759" grid="1" gridSize="10" guides="1" tooltips="1" connect="1" arrows="1" fold="1" page="1" pageScale="1" pageWidth="850" pageHeight="1100" math="0" shadow="0">
      <root>
        <mxCell id="0" />
        <mxCell id="1" parent="0" />
        <mxCell id="4qa_GOqZ1UXJreGNr5sb-28" value="Node:&lt;br&gt;List&amp;lt;Nodes&amp;gt; neighbours&lt;br&gt;int x&lt;br&gt;int y" style="rounded=0;whiteSpace=wrap;html=1;" vertex="1" parent="1">
          <mxGeometry x="10" y="750" width="200" height="110" as="geometry" />
        </mxCell>
        <mxCell id="4qa_GOqZ1UXJreGNr5sb-29" value="*&lt;br&gt;0,0" style="rounded=0;whiteSpace=wrap;html=1;" vertex="1" parent="1">
          <mxGeometry x="120" y="40" width="40" height="40" as="geometry" />
        </mxCell>
        <mxCell id="4qa_GOqZ1UXJreGNr5sb-30" value=".&lt;br&gt;0,1" style="rounded=0;whiteSpace=wrap;html=1;" vertex="1" parent="1">
          <mxGeometry x="160" y="40" width="40" height="40" as="geometry" />
        </mxCell>
        <mxCell id="4qa_GOqZ1UXJreGNr5sb-31" value="M&lt;br&gt;0,2" style="rounded=0;whiteSpace=wrap;html=1;" vertex="1" parent="1">
          <mxGeometry x="200" y="40" width="40" height="40" as="geometry" />
        </mxCell>
        <mxCell id="4qa_GOqZ1UXJreGNr5sb-34" value=".&lt;br&gt;1,0" style="rounded=0;whiteSpace=wrap;html=1;" vertex="1" parent="1">
          <mxGeometry x="120" y="80" width="40" height="40" as="geometry" />
        </mxCell>
        <mxCell id="4qa_GOqZ1UXJreGNr5sb-35" value="X&lt;br&gt;1,1" style="rounded=0;whiteSpace=wrap;html=1;" vertex="1" parent="1">
          <mxGeometry x="160" y="80" width="40" height="40" as="geometry" />
        </mxCell>
        <mxCell id="4qa_GOqZ1UXJreGNr5sb-36" value=".&lt;br&gt;1,2" style="rounded=0;whiteSpace=wrap;html=1;" vertex="1" parent="1">
          <mxGeometry x="200" y="80" width="40" height="40" as="geometry" />
        </mxCell>
        <mxCell id="4qa_GOqZ1UXJreGNr5sb-43" style="edgeStyle=orthogonalEdgeStyle;rounded=0;orthogonalLoop=1;jettySize=auto;html=1;entryX=0.5;entryY=0;entryDx=0;entryDy=0;" edge="1" parent="1" source="4qa_GOqZ1UXJreGNr5sb-37" target="4qa_GOqZ1UXJreGNr5sb-41">
          <mxGeometry relative="1" as="geometry" />
        </mxCell>
        <mxCell id="4qa_GOqZ1UXJreGNr5sb-44" style="edgeStyle=orthogonalEdgeStyle;rounded=0;orthogonalLoop=1;jettySize=auto;html=1;entryX=0.5;entryY=0;entryDx=0;entryDy=0;" edge="1" parent="1" source="4qa_GOqZ1UXJreGNr5sb-37" target="4qa_GOqZ1UXJreGNr5sb-39">
          <mxGeometry relative="1" as="geometry" />
        </mxCell>
        <mxCell id="4qa_GOqZ1UXJreGNr5sb-37" value="0,0" style="ellipse;whiteSpace=wrap;html=1;aspect=fixed;" vertex="1" parent="1">
          <mxGeometry x="380" y="140" width="40" height="40" as="geometry" />
        </mxCell>
        <mxCell id="4qa_GOqZ1UXJreGNr5sb-47" style="edgeStyle=orthogonalEdgeStyle;rounded=0;orthogonalLoop=1;jettySize=auto;html=1;" edge="1" parent="1" source="4qa_GOqZ1UXJreGNr5sb-38" target="4qa_GOqZ1UXJreGNr5sb-39">
          <mxGeometry relative="1" as="geometry">
            <Array as="points">
              <mxPoint x="500" y="330" />
              <mxPoint x="500" y="250" />
            </Array>
          </mxGeometry>
        </mxCell>
        <mxCell id="4qa_GOqZ1UXJreGNr5sb-48" style="edgeStyle=orthogonalEdgeStyle;rounded=0;orthogonalLoop=1;jettySize=auto;html=1;" edge="1" parent="1" source="4qa_GOqZ1UXJreGNr5sb-38" target="4qa_GOqZ1UXJreGNr5sb-40">
          <mxGeometry relative="1" as="geometry" />
        </mxCell>
        <mxCell id="4qa_GOqZ1UXJreGNr5sb-38" value="0,2" style="ellipse;whiteSpace=wrap;html=1;aspect=fixed;fillColor=#f8cecc;strokeColor=#b85450;" vertex="1" parent="1">
          <mxGeometry x="410" y="310" width="40" height="40" as="geometry" />
        </mxCell>
        <mxCell id="4qa_GOqZ1UXJreGNr5sb-46" style="edgeStyle=orthogonalEdgeStyle;rounded=0;orthogonalLoop=1;jettySize=auto;html=1;entryX=0.5;entryY=0;entryDx=0;entryDy=0;" edge="1" parent="1" source="4qa_GOqZ1UXJreGNr5sb-39" target="4qa_GOqZ1UXJreGNr5sb-38">
          <mxGeometry relative="1" as="geometry" />
        </mxCell>
        <mxCell id="4qa_GOqZ1UXJreGNr5sb-39" value="0,1" style="ellipse;whiteSpace=wrap;html=1;aspect=fixed;fillColor=#fff2cc;strokeColor=#d6b656;" vertex="1" parent="1">
          <mxGeometry x="410" y="230" width="40" height="40" as="geometry" />
        </mxCell>
        <mxCell id="4qa_GOqZ1UXJreGNr5sb-40" value="1,2" style="ellipse;whiteSpace=wrap;html=1;aspect=fixed;fillColor=#fff2cc;strokeColor=#d6b656;" vertex="1" parent="1">
          <mxGeometry x="410" y="380" width="40" height="40" as="geometry" />
        </mxCell>
        <mxCell id="4qa_GOqZ1UXJreGNr5sb-49" style="edgeStyle=orthogonalEdgeStyle;rounded=0;orthogonalLoop=1;jettySize=auto;html=1;entryX=0;entryY=0.5;entryDx=0;entryDy=0;" edge="1" parent="1" source="4qa_GOqZ1UXJreGNr5sb-41" target="4qa_GOqZ1UXJreGNr5sb-37">
          <mxGeometry relative="1" as="geometry">
            <Array as="points">
              <mxPoint x="310" y="250" />
              <mxPoint x="310" y="160" />
            </Array>
          </mxGeometry>
        </mxCell>
        <mxCell id="4qa_GOqZ1UXJreGNr5sb-41" value="1,0" style="ellipse;whiteSpace=wrap;html=1;aspect=fixed;" vertex="1" parent="1">
          <mxGeometry x="350" y="230" width="40" height="40" as="geometry" />
        </mxCell>
        <mxCell id="4qa_GOqZ1UXJreGNr5sb-42" value="NULL" style="ellipse;whiteSpace=wrap;html=1;aspect=fixed;" vertex="1" parent="1">
          <mxGeometry x="160" y="200" width="40" height="40" as="geometry" />
        </mxCell>
        <mxCell id="4qa_GOqZ1UXJreGNr5sb-45" style="edgeStyle=orthogonalEdgeStyle;rounded=0;orthogonalLoop=1;jettySize=auto;html=1;entryX=1.089;entryY=0.628;entryDx=0;entryDy=0;entryPerimeter=0;" edge="1" parent="1" source="4qa_GOqZ1UXJreGNr5sb-39" target="4qa_GOqZ1UXJreGNr5sb-37">
          <mxGeometry relative="1" as="geometry">
            <Array as="points">
              <mxPoint x="500" y="250" />
              <mxPoint x="500" y="165" />
            </Array>
          </mxGeometry>
        </mxCell>
        <mxCell id="4qa_GOqZ1UXJreGNr5sb-50" style="edgeStyle=orthogonalEdgeStyle;rounded=0;orthogonalLoop=1;jettySize=auto;html=1;entryX=-0.023;entryY=0.275;entryDx=0;entryDy=0;entryPerimeter=0;" edge="1" parent="1" source="4qa_GOqZ1UXJreGNr5sb-40" target="4qa_GOqZ1UXJreGNr5sb-38">
          <mxGeometry relative="1" as="geometry">
            <Array as="points">
              <mxPoint x="310" y="400" />
              <mxPoint x="310" y="321" />
            </Array>
          </mxGeometry>
        </mxCell>
        <mxCell id="4qa_GOqZ1UXJreGNr5sb-51" value="0,0" style="ellipse;whiteSpace=wrap;html=1;aspect=fixed;" vertex="1" parent="1">
          <mxGeometry x="120" y="160" width="40" height="40" as="geometry" />
        </mxCell>
        <mxCell id="4qa_GOqZ1UXJreGNr5sb-53" value="0,1" style="ellipse;whiteSpace=wrap;html=1;aspect=fixed;" vertex="1" parent="1">
          <mxGeometry x="160" y="160" width="40" height="40" as="geometry" />
        </mxCell>
        <mxCell id="4qa_GOqZ1UXJreGNr5sb-54" value="0,2" style="ellipse;whiteSpace=wrap;html=1;aspect=fixed;" vertex="1" parent="1">
          <mxGeometry x="220" y="140" width="40" height="40" as="geometry" />
        </mxCell>
        <mxCell id="4qa_GOqZ1UXJreGNr5sb-55" value="1,0" style="ellipse;whiteSpace=wrap;html=1;aspect=fixed;" vertex="1" parent="1">
          <mxGeometry x="120" y="200" width="40" height="40" as="geometry" />
        </mxCell>
        <mxCell id="4qa_GOqZ1UXJreGNr5sb-56" value="1,2" style="ellipse;whiteSpace=wrap;html=1;aspect=fixed;" vertex="1" parent="1">
          <mxGeometry x="200" y="200" width="40" height="40" as="geometry" />
        </mxCell>
      </root>
    </mxGraphModel>
  </diagram>
</mxfile>
